PathFileType	4	(X/Y/Z)	 s07c0101.trc
DataRate	CameraRate	NumFrames	NumMarkers	Units	OrigDataRate	OrigDataStartFrame	OrigNumFrames
200	200	4	48	mm	200	751	2000
Frame#	Time	racr			lacr			c7			jug			rlel			rdr			llel			ldr			s2			lic			ric			lasi			rasi			rpsi			lpsi			rgt			lgt			rth1			rth2			rth3			rth4			rlfc			rmfc			rsh1			rsh2			rsh3			rsh4			rlmal			rcal			rtoe			rmt5			lth1			lth2			lth4			lth3			llfc			lmfc			lsh1			lsh2			lsh3			lsh4			llmal			lcal			ltoe			lmt5			SBIKE			LBIKE			RBIKE			
		X1	Y1	Z1	X2	Y2	Z2	X3	Y3	Z3	X4	Y4	Z4	X5	Y5	Z5	X6	Y6	Z6	X7	Y7	Z7	X8	Y8	Z8	X9	Y9	Z9	X10	Y10	Z10	X11	Y11	Z11	X12	Y12	Z12	X13	Y13	Z13	X14	Y14	Z14	X15	Y15	Z15	X16	Y16	Z16	X17	Y17	Z17	X18	Y18	Z18	X19	Y19	Z19	X20	Y20	Z20	X21	Y21	Z21	X22	Y22	Z22	X23	Y23	Z23	X24	Y24	Z24	X25	Y25	Z25	X26	Y26	Z26	X27	Y27	Z27	X28	Y28	Z28	X29	Y29	Z29	X30	Y30	Z30	X31	Y31	Z31	X32	Y32	Z32	X33	Y33	Z33	X34	Y34	Z34	X35	Y35	Z35	X36	Y36	Z36	X37	Y37	Z37	X38	Y38	Z38	X39	Y39	Z39	X40	Y40	Z40	X41	Y41	Z41	X42	Y42	Z42	X43	Y43	Z43	X44	Y44	Z44	X45	Y45	Z45	X46	Y46	Z46	X47	Y47	Z47	X48	Y48	Z48	
751	3.7550	457.185309	1428.090780	-52.667994	476.975628	1418.882036	-309.097743	428.482741	1473.135346	-186.758533	380.331625	1327.955530	-188.975470	506.410209	1102.282161	72.419012	714.073018	919.043276	-42.770324	520.374767	1121.700453	-490.833927	720.236381	915.313982	-405.314652	-144.918248	1205.285382	-238.127070	19.890681	1271.702655	-366.819506	3.748493	1257.922960	-74.228447	52.419975	1198.542243	-341.294486	31.559004	1208.918811	-89.192843	-124.082139	1246.724482	-185.626461	-108.804688	1258.123631	-293.019840	-33.516313	1121.791879	-40.246455	-13.445395	1111.287767	-401.061251	84.987925	1016.018087	-36.908877	158.747836	969.237285	-47.499172	200.405839	894.825561	-51.327688	183.629512	993.974785	-60.560916	285.071217	781.457660	-84.354763	270.903713	763.999420	-187.338258	257.257516	641.374766	-55.857194	263.236533	553.837697	-74.949979	228.733698	474.444382	-67.970969	276.344140	555.237892	-113.592145	197.920563	334.486559	-68.351320	144.064525	277.651404	-93.607203	430.446382	326.769384	-118.711353	366.762285	274.423031	-45.827269	79.627291	1029.719143	-399.770688	161.268864	997.097655	-390.408850	181.123304	1025.948506	-380.648449	217.831455	929.336662	-381.160599	330.710003	801.596782	-343.660577	309.019703	783.963106	-245.512244	220.405500	701.046335	-371.286115	172.508374	630.301208	-360.158286	93.126103	589.336338	-372.905059	175.900391	627.476958	-318.397695	-13.061408	510.779113	-382.901459	-59.392684	495.054807	-363.194194	129.016739	326.598971	-351.560665	51.156570	357.971948	-414.098736	-260.819593	979.965447	-228.890550	-76.269384	83.295617	-435.231738	-82.110129	79.217755	-37.856404	
752	3.7600	458.609887	1427.893327	-54.227736	474.531767	1420.650299	-311.559735	428.070230	1474.847211	-188.810334	378.412108	1330.181719	-191.543553	506.644491	1102.051571	72.806264	714.218136	919.020944	-42.396673	519.457915	1121.530674	-489.989444	720.257107	915.447597	-405.189628	-144.548530	1205.396958	-234.769803	18.951231	1273.352514	-366.031741	6.172423	1256.351202	-72.172122	52.230518	1199.984215	-339.640111	33.159645	1207.309943	-86.944477	-123.136327	1245.968213	-181.770908	-109.194909	1258.262165	-288.861587	-32.237481	1119.422291	-38.220101	-13.413059	1112.797392	-399.250380	84.212868	1011.476653	-35.634719	156.793017	962.896850	-46.745249	196.867551	887.810838	-50.448343	182.076984	986.811065	-60.894918	278.464007	772.502093	-84.210090	263.902764	755.016243	-186.394228	251.575859	632.191872	-55.186671	258.505615	544.854264	-74.321338	224.772786	465.189386	-67.049797	271.400626	546.309059	-113.202884	195.234038	325.169172	-67.676254	141.262571	268.444584	-92.412521	427.574221	314.985341	-120.196127	363.360057	263.746655	-46.772052	80.722638	1032.580505	-398.152778	162.807130	1001.517213	-389.222525	182.260122	1030.640543	-379.745095	220.722545	934.676162	-380.834245	336.342274	809.394702	-343.786372	316.571621	791.701467	-245.483238	225.771770	709.606562	-371.462700	177.498580	639.130549	-360.322209	97.722939	598.812886	-372.744591	181.143815	636.051956	-318.693286	-9.086201	521.314902	-382.479642	-58.653406	514.825308	-373.870059	131.939645	336.202922	-351.438898	53.780698	367.403250	-412.801862	-260.856991	980.001158	-228.505139	-76.269085	83.343603	-435.216707	-82.120998	79.183985	-37.812949	
753	3.7650	460.090186	1427.855834	-56.084650	472.449336	1422.359742	-314.744747	427.703280	1476.652279	-190.977222	376.764768	1332.439950	-194.210977	506.990902	1101.911927	72.892090	714.394677	919.020209	-42.163531	518.765837	1121.468312	-488.897458	720.253848	915.588137	-405.058258	-143.739357	1205.189183	-231.053127	17.708937	1274.871515	-363.443598	8.302752	1255.839068	-69.217430	51.021674	1200.725213	-336.627202	34.888355	1205.656185	-84.795825	-122.447210	1246.294114	-178.037178	-109.424421	1258.576010	-285.137332	-30.883685	1116.885636	-36.123292	-13.428692	1114.923222	-397.747480	83.374050	1006.657013	-34.437147	154.698000	956.344763	-45.937941	192.798553	880.171331	-50.421001	180.665986	980.333539	-59.561760	271.643966	763.692011	-83.854360	256.419746	746.168243	-185.533517	245.629034	623.250856	-54.541231	253.262540	535.865755	-73.744503	220.908307	455.249448	-67.137430	265.628886	537.614621	-112.732639	191.984192	316.186006	-67.105951	138.159622	259.347753	-91.656112	424.332631	304.131244	-120.738222	360.155865	253.466627	-46.968267	82.041528	1036.013837	-396.725035	164.642034	1006.585772	-388.285697	183.538996	1036.201737	-378.831692	224.146468	940.807317	-380.945525	342.480463	818.705133	-344.930366	323.327363	799.725429	-247.273919	232.150141	718.816698	-371.715775	183.624817	648.563414	-360.685040	103.616442	608.511739	-372.788244	187.462264	645.183673	-319.003274	-3.202216	532.052400	-382.660001	-56.992755	529.938116	-371.988351	135.579769	345.304190	-351.350124	57.724795	377.019835	-412.498924	-260.870638	979.993239	-228.195224	-76.278809	83.426562	-435.192853	-82.108081	79.177603	-37.822805	
754	3.7700	461.631823	1428.089427	-58.278328	470.340314	1424.110715	-318.147709	427.251274	1478.542274	-193.196897	375.308628	1334.694306	-196.801057	507.368323	1101.949440	72.792201	714.552320	919.049759	-42.131412	517.981295	1121.584470	-488.022206	720.231504	915.693107	-404.921294	-143.062245	1205.127778	-227.411672	16.374373	1276.547441	-360.678515	10.363350	1254.582307	-66.965460	51.018560	1202.701034	-334.872294	36.657226	1203.965974	-82.558006	-121.226913	1245.714634	-174.137770	-109.667694	1259.147082	-280.990182	-29.477804	1114.374259	-34.308904	-13.293100	1117.309842	-396.286050	82.375097	1001.766892	-33.272670	152.366236	949.659500	-45.219999	188.344193	872.079731	-50.468639	178.597808	972.403040	-59.614147	264.640796	755.025532	-83.535006	248.544437	737.390467	-184.724286	239.483911	614.555659	-53.937220	247.644758	527.361008	-73.284645	215.986770	446.497652	-66.586911	259.853538	529.001322	-112.352417	188.183112	307.563219	-66.653632	134.134248	250.818332	-90.699367	420.512227	293.323519	-121.423943	356.298654	243.277379	-47.247137	83.576564	1040.030120	-395.541601	166.964131	1012.451219	-387.783500	185.126693	1042.514918	-377.859710	227.992890	947.893625	-380.700715	349.247267	828.646920	-345.685895	330.906890	809.134465	-247.956958	239.363076	728.501192	-372.137293	190.763470	658.366691	-361.052998	110.496255	618.648089	-372.889709	194.407405	655.160348	-319.256475	4.039047	542.600157	-382.983897	-56.323182	545.642725	-364.207802	140.116418	353.962534	-351.244183	62.502785	386.696381	-412.377595	-260.860745	979.994241	-227.957815	-76.287672	83.511617	-435.190461	-82.113056	79.173415	-37.806850	
